<svg width="47" height="47" viewBox="0 0 47 47" fill="none" xmlns="http://www.w3.org/2000/svg">
<g clip-path="url(#clip0_140_5180)">
<path d="M28.1017 3.3335H12.1817C10.8117 3.3335 9.70117 4.44405 9.70117 5.81405V35.4779C9.70117 36.8479 10.8117 37.9585 12.1817 37.9585H14.8112H27.7384H27.8973C29.3801 37.9585 30.5823 36.7563 30.5823 35.2735V25.9207V17.6496V5.81405C30.5823 4.44405 29.4717 3.3335 28.1017 3.3335Z" fill="#ECF0F4"/>
<path d="M41.5526 49.9999H24.8615C24.5765 49.9999 24.3376 49.7843 24.3088 49.501C23.7826 44.3582 25.3799 39.3877 28.5954 36.0754L24.4876 32.1232C24.291 31.9516 24.0454 31.8093 23.776 31.7138L19.2415 30.8299C19.2176 30.8254 19.1943 30.8188 19.1715 30.8116C17.0626 30.1049 15.8488 27.9366 16.3482 25.7688L16.4876 25.1627C16.9904 22.9799 19.1215 21.5382 21.3332 21.8788L25.7138 22.261C26.2532 22.3427 26.7399 22.5382 27.1588 22.8293L35.5849 28.766C35.8354 28.9427 35.896 29.2888 35.7188 29.5404C35.5426 29.7916 35.1965 29.8504 34.9443 29.6743L26.5204 23.7382C26.2426 23.5443 25.9171 23.4143 25.581 23.3621L21.2004 22.9799C19.5215 22.7221 17.9438 23.7916 17.571 25.411L17.4315 26.0171C17.0638 27.6132 17.9482 29.2099 19.4921 29.7454L24.0271 30.6299C24.051 30.6349 24.0743 30.641 24.0976 30.6482C24.5193 30.7899 24.9038 31.0104 25.2393 31.3038L29.7776 35.6688C29.8871 35.7738 29.9488 35.9193 29.9482 36.0716C29.9476 36.2238 29.8849 36.3682 29.7743 36.4732C26.6388 39.4399 25.0121 44.051 25.371 48.8888H41.0004C41.0476 44.426 41.6549 40.9199 42.1926 37.8121C42.8482 34.0266 43.4137 30.7566 42.8432 26.7805C42.5049 24.4221 40.9226 22.4132 38.7149 21.5377L36.5488 20.5593C36.2693 20.4332 36.1449 20.1038 36.2715 19.8243C36.3982 19.5449 36.7265 19.4199 37.0065 19.5466L39.1482 20.5143C41.7015 21.526 43.5476 23.8699 43.9432 26.6216C44.5382 30.7721 43.9588 34.1221 43.2871 38.0004C42.7343 41.1927 42.1082 44.8104 42.1082 49.4443C42.1082 49.7516 41.8599 49.9999 41.5526 49.9999Z" fill="black"/>
<path d="M21.4792 41.8472H8.51194C7.02361 41.8472 5.8125 40.6361 5.8125 39.1478V2.69944C5.8125 1.21111 7.02361 0 8.51194 0C8.81861 0 9.0675 0.248889 9.0675 0.555556C9.0675 0.862222 8.81861 1.11111 8.51194 1.11111C7.63639 1.11111 6.92361 1.82389 6.92361 2.69944V39.1478C6.92361 40.0233 7.63639 40.7361 8.51194 40.7361H21.4786C21.7853 40.7361 22.0342 40.9844 22.0342 41.2917C22.0342 41.5989 21.7858 41.8472 21.4792 41.8472Z" fill="black"/>
<path d="M33.3601 28.4328C33.0528 28.4328 32.8045 28.1844 32.8045 27.8772V2.69944C32.8045 1.82389 32.0923 1.11111 31.2162 1.11111H13.0712C12.7645 1.11111 12.5156 0.862222 12.5156 0.555556C12.5156 0.248889 12.7645 0 13.0712 0H31.2162C32.7051 0 33.9156 1.21111 33.9156 2.69944V27.8772C33.9156 28.1839 33.6673 28.4328 33.3601 28.4328Z" fill="black"/>
<path d="M25.0818 12.7418C24.1168 12.7418 23.1784 12.4012 22.439 11.7818C22.204 11.5851 22.1729 11.2345 22.3696 10.999C22.5662 10.7634 22.9162 10.7329 23.1523 10.9295C23.6918 11.3812 24.3768 11.6301 25.0818 11.6301C26.7401 11.6301 28.0896 10.2806 28.0896 8.62231C28.0896 6.96397 26.7401 5.61453 25.0818 5.61453C23.4234 5.61453 22.074 6.96397 22.074 8.62231C22.074 8.92897 21.8251 9.17786 21.5184 9.17786C21.2118 9.17786 20.9629 8.92897 20.9629 8.62231C20.9629 6.3512 22.8107 4.50342 25.0818 4.50342C27.3523 4.50342 29.2007 6.3512 29.2007 8.62231C29.2007 10.8934 27.3523 12.7418 25.0818 12.7418Z" fill="black"/>
<path d="M13.0712 35.2994C12.7645 35.2994 12.5156 35.0511 12.5156 34.7439V0.555556C12.5156 0.248889 12.7645 0 13.0712 0C13.3778 0 13.6267 0.248889 13.6267 0.555556V34.7439C13.6267 35.0511 13.3778 35.2994 13.0712 35.2994Z" fill="black"/>
</g>
<defs>
<clipPath id="clip0_140_5180">
<rect width="47" height="47" fill="white"/>
</clipPath>
</defs>
</svg>
