<svg width="47" height="47" viewBox="0 0 47 47" fill="none" xmlns="http://www.w3.org/2000/svg">
<g clip-path="url(#clip0_140_4399)">
<path d="M23.5006 31.3704C27.9042 31.3704 31.4739 27.8006 31.4739 23.3971C31.4739 18.9936 27.9042 15.4238 23.5006 15.4238C19.0971 15.4238 15.5273 18.9936 15.5273 23.3971C15.5273 27.8006 19.0971 31.3704 23.5006 31.3704Z" fill="#ECF0F4"/>
<path d="M23.5007 47.0003C23.4406 47.0003 23.3801 46.9899 23.3205 46.968C10.3699 42.2111 3.20609 30.1498 2.02639 11.1195C2.01072 10.8652 2.18097 10.6365 2.42902 10.5785C8.34946 9.20191 13.5915 7.04199 18.0085 4.15828C18.2503 4.00057 18.5735 4.06846 18.7312 4.31025C18.8889 4.55204 18.8211 4.87582 18.5793 5.03301C14.1675 7.91306 8.96046 10.086 3.09694 11.4939C4.34192 30.0725 11.0775 41.3588 23.6803 45.9883C23.9514 46.0875 24.0898 46.3878 23.9905 46.6583C23.9132 46.8693 23.7132 47.0003 23.5007 47.0003Z" fill="black"/>
<path d="M23.5007 47.0001C23.3952 47.0001 23.2908 46.9678 23.202 46.9061C23.0621 46.8085 22.9785 46.6487 22.9785 46.4779V33.8537C22.9785 33.5649 23.2125 33.3315 23.5007 33.3315C23.789 33.3315 24.023 33.5649 24.023 33.8537V45.7207C36.1735 40.933 42.6825 29.7235 43.904 11.4937C35.9286 9.57926 29.2488 6.28822 24.023 1.7005V8.8586C24.023 9.14686 23.789 9.38082 23.5007 9.38082C23.2125 9.38082 22.9785 9.14686 22.9785 8.8586V0.522364C22.9785 0.31452 23.1018 0.125997 23.2929 0.0434863C23.484 -0.0390248 23.706 -0.000902576 23.8574 0.141664C29.1606 5.10434 36.1296 8.61629 44.5724 10.5788C44.821 10.6368 44.9912 10.8655 44.975 11.1198C43.7953 30.1496 36.6315 42.2114 23.6809 46.9678C23.6224 46.9892 23.5613 47.0001 23.5007 47.0001Z" fill="black"/>
<path d="M23.4999 34.3758C20.9473 34.3758 18.4657 33.4745 16.511 31.8389C16.2901 31.654 16.2609 31.3245 16.4458 31.1036C16.6306 30.8821 16.9596 30.8524 17.1816 31.0383C18.9482 32.5172 21.1922 33.3319 23.4999 33.3319C28.93 33.3319 33.3475 28.9144 33.3475 23.4843C33.3475 18.0543 28.93 13.6358 23.4999 13.6358C18.0699 13.6358 13.6519 18.0532 13.6519 23.4838C13.6519 23.7721 13.4179 24.006 13.1296 24.006C12.8414 24.006 12.6074 23.7721 12.6074 23.4838C12.6074 17.4777 17.4939 12.5913 23.4999 12.5913C29.506 12.5913 34.3919 17.4777 34.3919 23.4838C34.3919 29.4899 29.506 34.3758 23.4999 34.3758Z" fill="black"/>
<path d="M22.8315 27.5049C22.6817 27.5049 22.5386 27.4402 22.4399 27.3279L19.0444 23.4692C18.8538 23.2525 18.8746 22.9229 19.0914 22.7323C19.3081 22.5412 19.6381 22.5631 19.8282 22.7793L22.8289 26.1884L28.5535 19.5734C28.7415 19.3551 29.0721 19.3321 29.2898 19.5201C29.5081 19.7092 29.5316 20.0387 29.3431 20.257L23.2263 27.3242C23.1276 27.4386 22.9845 27.5044 22.8336 27.5049C22.8331 27.5049 22.8321 27.5049 22.8315 27.5049Z" fill="black"/>
</g>
<defs>
<clipPath id="clip0_140_4399">
<rect width="47" height="47" fill="white"/>
</clipPath>
</defs>
</svg>
