<svg width="47" height="47" viewBox="0 0 47 47" fill="none" xmlns="http://www.w3.org/2000/svg">
<g clip-path="url(#clip0_586_9975)">
<path d="M8.95215 18.8029H3.37325C2.95234 18.8029 2.61133 18.4619 2.61133 18.0415V9.0964C2.61133 8.67548 2.95234 8.33447 3.37325 8.33447H12.3184C12.7393 8.33447 13.0803 8.67548 13.0803 9.0964V12.4V18.041C13.0803 18.4619 12.7393 18.8029 12.3184 18.8029H10.2123H8.95215Z" fill="#ECF0F4"/>
<path d="M36.929 37.4421C36.3175 37.4421 35.7441 37.1152 35.4328 36.5882L34.0996 34.3338C31.3605 29.7033 28.7729 25.3291 27.8768 23.5316C27.1995 22.142 26.8574 20.6563 26.8574 19.1126C26.8574 13.5593 31.3752 9.04102 36.929 9.04102C42.4828 9.04102 47.0006 13.5593 47.0006 19.1126C47.0006 20.6563 46.6601 22.1383 45.9885 23.5181L45.9504 23.5906C45.0537 25.3824 42.4813 29.7309 39.7584 34.3348L38.4262 36.5882C38.1134 37.1152 37.5405 37.4421 36.929 37.4421ZM36.929 10.0855C31.9517 10.0855 27.9019 14.1348 27.9019 19.1126C27.9019 20.4965 28.2089 21.8281 28.8142 23.0705C29.691 24.8299 32.2692 29.1883 34.9989 33.8027L36.3321 36.0571C36.4559 36.2671 36.6851 36.3976 36.9295 36.3976C37.1739 36.3976 37.4027 36.2671 37.5275 36.0571L38.8591 33.8038C41.5731 29.216 44.1362 24.8826 45.0281 23.1029C45.6512 21.825 45.9561 20.4965 45.9561 19.1126C45.9561 14.1348 41.9063 10.0855 36.929 10.0855Z" fill="black"/>
<path d="M36.9282 12.8472C33.329 12.8472 30.4004 15.7758 30.4004 19.3749C30.4004 20.376 30.6213 21.3369 31.06 22.2367C31.6636 23.4483 33.4303 26.4354 35.3014 29.598L36.2127 31.139C36.3621 31.3923 36.6342 31.5474 36.9282 31.5474C37.2222 31.5474 37.4943 31.3918 37.6436 31.139L38.5538 29.5985C40.4119 26.4573 42.1676 23.4895 42.7828 22.2618C42.7885 22.2513 42.7943 22.2404 42.7995 22.2294C43.2345 21.3354 43.4554 20.3745 43.4554 19.3744C43.4559 15.7753 40.5278 12.8472 36.9282 12.8472Z" fill="#ECF0F4"/>
<path d="M36.9275 24.5182C35.6711 24.5182 34.4496 24.0743 33.4877 23.269C33.2668 23.0842 33.2375 22.7547 33.4229 22.5332C33.6088 22.3123 33.9373 22.2831 34.1587 22.468C34.9321 23.116 35.9155 23.4732 36.9275 23.4732C39.3078 23.4732 41.2442 21.5368 41.2442 19.1565C41.2442 16.7763 39.3078 14.8399 36.9275 14.8399C34.5472 14.8399 32.6109 16.7763 32.6109 19.1565C32.6109 19.4448 32.3774 19.6788 32.0886 19.6788C31.7998 19.6788 31.5664 19.4448 31.5664 19.1565C31.5664 16.2002 33.9712 13.7954 36.9275 13.7954C39.8838 13.7954 42.2887 16.2002 42.2887 19.1565C42.2887 22.1128 39.8833 24.5182 36.9275 24.5182Z" fill="black"/>
<path d="M36.9286 41.2763H14.4704C11.9972 41.2763 9.98508 39.2637 9.98508 36.7905C9.98508 34.3172 11.9972 32.3046 14.4704 32.3046H19.6723C21.7205 32.3046 23.3863 30.6387 23.3863 28.5905C23.3863 26.5424 21.7205 24.8765 19.6723 24.8765H8.13746C7.84919 24.8765 7.61523 24.643 7.61523 24.3543C7.61523 24.0655 7.84919 23.832 8.13746 23.832H19.6728C22.2965 23.832 24.4313 25.9669 24.4313 28.5905C24.4313 31.2142 22.2965 33.349 19.6728 33.349H14.471C12.5737 33.349 11.03 34.8927 11.03 36.7905C11.03 38.6882 12.5737 40.2319 14.471 40.2319H36.9286C37.2174 40.2319 37.4508 40.4653 37.4508 40.7541C37.4508 41.0429 37.2174 41.2763 36.9286 41.2763Z" fill="black"/>
<path d="M15.1685 21.4143H0.522222C0.233956 21.4143 0 21.1804 0 20.8921V6.24586C0 5.95759 0.233956 5.72363 0.522222 5.72363H15.1685C15.4567 5.72363 15.6907 5.95759 15.6907 6.24586V20.8921C15.6907 21.1809 15.4573 21.4143 15.1685 21.4143ZM1.04444 20.3699H14.6462V6.76808H1.04444V20.3699Z" fill="black"/>
<path d="M9.87822 12.4185C9.76803 12.4185 9.65888 12.3841 9.56697 12.3156L7.84573 11.0378L6.12448 12.3156C5.96625 12.4342 5.75475 12.4519 5.57876 12.3632C5.40277 12.2744 5.29102 12.0937 5.29102 11.8963V6.24586C5.29102 5.95759 5.52497 5.72363 5.81324 5.72363C6.1015 5.72363 6.33546 5.95759 6.33546 6.24586V10.8581L7.53448 9.96773C7.71935 9.83039 7.9721 9.83039 8.15697 9.96773L9.35599 10.8581V6.24586C9.35599 5.95759 9.58995 5.72363 9.87822 5.72363C10.1665 5.72363 10.4004 5.95759 10.4004 6.24586V11.8963C10.4004 12.0937 10.2892 12.2744 10.1127 12.3632C10.0385 12.4002 9.95812 12.4185 9.87822 12.4185Z" fill="black"/>
<path d="M5.97423 16.2603H3.21168C2.92341 16.2603 2.68945 16.0263 2.68945 15.738C2.68945 15.4498 2.92341 15.2158 3.21168 15.2158H5.97423C6.2625 15.2158 6.49645 15.4498 6.49645 15.738C6.49645 16.0263 6.2625 16.2603 5.97423 16.2603Z" fill="black"/>
<path d="M5.97423 18.8262H3.21168C2.92341 18.8262 2.68945 18.5922 2.68945 18.304C2.68945 18.0157 2.92341 17.7817 3.21168 17.7817H5.97423C6.2625 17.7817 6.49645 18.0157 6.49645 18.304C6.49645 18.5922 6.2625 18.8262 5.97423 18.8262Z" fill="black"/>
</g>
<defs>
<clipPath id="clip0_586_9975">
<rect width="47" height="47" fill="white"/>
</clipPath>
</defs>
</svg>
