<svg width="47" height="47" viewBox="0 0 47 47" fill="none" xmlns="http://www.w3.org/2000/svg">
<path d="M23.0002 36.4911C29.0398 36.4911 33.9359 31.595 33.9359 25.5554C33.9359 19.5157 29.0398 14.6196 23.0002 14.6196C16.9605 14.6196 12.0645 19.5157 12.0645 25.5554C12.0645 31.595 16.9605 36.4911 23.0002 36.4911Z" fill="#ECF0F4"/>
<path d="M23.0003 40.1328C19.5865 40.1328 16.2674 38.9282 13.6541 36.7396C13.4379 36.5586 13.4093 36.2361 13.5902 36.0199C13.7711 35.8027 14.0931 35.7741 14.3103 35.956C16.7402 37.9898 19.8263 39.1106 23.0003 39.1106C30.4686 39.1106 36.5447 33.0345 36.5447 25.5662C36.5447 18.0978 30.4686 12.0217 23.0003 12.0217C15.7026 12.0217 9.73437 17.8223 9.46553 25.0551H11.6853C11.9674 25.0551 12.1964 25.2835 12.1964 25.5662C12.1964 25.8488 11.9674 26.0773 11.6853 26.0773H8.9447C8.66257 26.0773 8.43359 25.8488 8.43359 25.5662C8.43359 17.5341 14.9681 10.9995 23.0003 10.9995C31.0324 10.9995 37.5669 17.5341 37.5669 25.5662C37.5669 33.5983 31.0324 40.1328 23.0003 40.1328Z" fill="black"/>
<path d="M23.0001 46C11.7332 46 2.56641 36.8332 2.56641 25.5663C2.56641 15.7202 9.50014 7.35336 19.1162 5.50671V4.0664H16.8944C16.6123 4.0664 16.3833 3.83742 16.3833 3.55529C16.3833 1.59467 17.9779 0 19.9386 0H26.0617C28.0223 0 29.617 1.59467 29.617 3.55529C29.617 3.83742 29.3885 4.0664 29.1059 4.0664H26.8835V5.50671C36.5006 7.35284 43.4338 15.7187 43.4338 25.5663C43.4338 36.8332 34.2676 46 23.0001 46ZM20.1384 5.87369C20.1389 5.8788 20.1394 5.88442 20.1399 5.88902C20.1624 6.15378 19.9815 6.39144 19.7198 6.43591C10.3726 8.02751 3.58863 16.0729 3.58863 25.5663C3.58863 36.27 12.2964 44.9778 23.0001 44.9778C33.7038 44.9778 42.4116 36.27 42.4116 25.5663C42.4116 16.0709 35.6256 8.02547 26.2753 6.4354C26.0136 6.39093 25.8296 6.15327 25.8521 5.88851C25.8537 5.86653 25.8572 5.84456 25.8618 5.8236V3.55529C25.8618 3.27316 26.0903 3.04418 26.3729 3.04418H28.5431C28.306 1.89162 27.2837 1.02222 26.0617 1.02222H19.9386C18.717 1.02222 17.6943 1.89162 17.4576 3.04418H19.6278C19.9099 3.04418 20.1389 3.27316 20.1389 3.55529V5.87369H20.1384Z" fill="black"/>
<path d="M21.8576 31.6621H15.1069C14.9055 31.6621 14.723 31.544 14.6407 31.36C14.5579 31.1765 14.5912 30.9619 14.7251 30.8116L20.6514 24.1472C21.6598 23.0136 21.5576 21.2712 20.424 20.2628C19.2898 19.2549 17.5479 19.3566 16.539 20.4902C16.3519 20.7008 16.0284 20.7202 15.8173 20.5327C15.6062 20.3451 15.5873 20.0221 15.7749 19.811C17.1575 18.2562 19.5474 18.1161 21.1027 19.4992C22.6575 20.8823 22.7976 23.2722 21.4145 24.827L16.2451 30.6399H21.8576C22.1398 30.6399 22.3687 30.8683 22.3687 31.151C22.3687 31.4336 22.1398 31.6621 21.8576 31.6621Z" fill="black"/>
<path d="M29.064 31.662C28.7814 31.662 28.5529 31.4336 28.5529 31.1509V29.1182H23.1617C22.9762 29.1182 22.8054 29.0181 22.715 28.856C22.625 28.694 22.6291 28.4962 22.7267 28.3383L28.629 18.7871C28.7486 18.5929 28.9827 18.5009 29.2035 18.5643C29.4233 18.6267 29.5751 18.8275 29.5751 19.056V28.096H31.3476C31.6303 28.096 31.8588 28.3245 31.8588 28.6071C31.8588 28.8898 31.6303 29.1182 31.3476 29.1182H29.5751V31.1514C29.5751 31.4336 29.3466 31.662 29.064 31.662ZM24.0781 28.096H28.5529V20.8556L24.0781 28.096Z" fill="black"/>
<path d="M34.7896 26.0774H34.3158C34.0332 26.0774 33.8047 25.8489 33.8047 25.5663C33.8047 25.2836 34.0332 25.0552 34.3158 25.0552H34.7896C35.0722 25.0552 35.3007 25.2836 35.3007 25.5663C35.3007 25.8489 35.0722 26.0774 34.7896 26.0774Z" fill="black"/>
<path d="M22.9994 14.7621C22.7173 14.7621 22.4883 14.5332 22.4883 14.251V13.7772C22.4883 13.4951 22.7173 13.2661 22.9994 13.2661C23.2815 13.2661 23.5105 13.4951 23.5105 13.7772V14.251C23.5105 14.5337 23.2815 14.7621 22.9994 14.7621Z" fill="black"/>
<path d="M22.9994 37.8661C22.7173 37.8661 22.4883 37.6377 22.4883 37.355V36.8812C22.4883 36.5986 22.7173 36.3701 22.9994 36.3701C23.2815 36.3701 23.5105 36.5986 23.5105 36.8812V37.355C23.5105 37.6377 23.2815 37.8661 22.9994 37.8661Z" fill="black"/>
</svg>
